<svg version="1.1" id="Layer_1" xmlns="http://www.w3.org/2000/svg" xmlns:xlink="http://www.w3.org/1999/xlink" x="0px" y="0px"
	 width="100%" viewBox="0 0 1024 544" enable-background="new 0 0 1024 544" xml:space="preserve">
<path fill="#000000" opacity="1.000000" stroke="none" 
	d="
M508.940491,418.057312 
	C492.961639,423.518921 476.724091,426.386536 460.447968,425.543396 
	C433.508362,424.147858 408.045135,416.859863 385.244324,401.647491 
	C356.642365,382.564636 336.596985,356.830475 325.963776,324.221832 
	C318.137238,300.220306 315.717072,275.739258 324.266907,251.199127 
	C324.916351,249.335083 325.775391,247.455688 326.937866,245.878998 
	C328.807587,243.343063 329.454529,240.914154 327.801666,238.040253 
	C326.424866,235.646408 327.054962,233.162613 327.899628,230.779587 
	C341.714996,191.802399 367.887024,164.154617 405.240143,146.947144 
	C414.539368,142.663284 425.791382,148.561295 428.200043,158.550720 
	C429.271881,162.995972 432.009857,165.755341 435.936737,167.746506 
	C439.638275,169.623367 443.450073,171.443558 445.501740,175.422638 
	C447.088348,178.499908 446.630585,180.932358 443.227600,182.288589 
	C437.975037,184.381912 432.997864,187.058701 427.766754,189.234161 
	C403.068726,199.505356 385.570190,217.252075 374.984100,241.746017 
	C358.248566,280.468353 368.922302,326.574707 400.908447,354.127899 
	C412.041840,363.718323 424.698883,370.562866 439.009583,374.193756 
	C439.332581,374.275665 439.697144,374.293304 439.969727,374.459808 
	C453.081024,382.471222 467.377075,377.806976 480.937958,377.250549 
	C490.222626,376.869598 499.219116,371.565735 507.847870,367.225830 
	C515.013672,363.621765 521.809814,359.399170 527.705627,353.906219 
	C530.621277,351.189819 533.028076,351.384460 535.837219,354.158295 
	C544.481201,362.693817 553.238403,371.115967 562.029236,379.500763 
	C564.893921,382.233154 565.207947,384.229187 561.915344,387.193359 
	C546.479858,401.089203 529.255432,411.795074 508.940491,418.057312 
M337.736084,237.081650 
	C335.590546,237.967773 333.534210,239.149307 334.906311,241.842072 
	C335.933350,243.857559 337.959839,245.150131 340.336761,244.347260 
	C342.803986,243.513855 343.139893,241.217346 342.917114,238.957199 
	C342.613617,235.877533 340.488312,236.401291 337.736084,237.081650 
z"/>
<path fill="#000000" opacity="1.000000" stroke="none" 
	d="
M590.355103,306.376709 
	C576.461426,318.348358 560.641785,325.744995 543.365784,330.296051 
	C532.922607,333.047150 522.192322,334.691345 512.063477,338.668243 
	C505.174866,341.372894 498.541168,344.349609 493.850677,350.422455 
	C493.360321,351.057343 492.704407,351.660187 491.616333,351.322479 
	C490.348328,349.345490 491.602692,347.508575 492.234253,345.753357 
	C496.967041,332.599945 506.263458,324.160431 519.474060,319.997162 
	C528.043335,317.296631 536.698120,314.868347 545.301819,312.275665 
	C558.136536,308.407898 568.598938,300.801025 577.260620,290.866425 
	C584.532837,282.525513 592.416382,274.710052 601.461914,268.656677 
	C606.850525,265.050568 612.622986,261.112122 619.379089,259.538910 
	C627.001099,257.764069 630.694031,247.308929 626.121826,241.113419 
	C625.636841,240.456253 625.363586,239.645981 624.962708,238.923080 
	C622.957397,235.307037 620.664246,235.407089 617.512329,238.168427 
	C606.740417,247.605606 599.207825,260.054260 588.245728,269.294403 
	C586.083130,271.117340 584.434326,273.410706 582.905518,275.841949 
	C578.857788,282.279053 572.267822,285.228363 565.486389,287.669891 
	C563.282654,288.463287 561.514343,287.507294 561.691406,284.668030 
	C562.162781,277.108307 565.131836,270.547729 569.812256,264.721924 
	C570.950684,263.304993 572.357056,262.130981 574.502441,262.403107 
	C581.234131,263.257111 585.640503,259.968109 585.317932,253.503342 
	C585.072998,248.594116 587.527710,245.597519 590.175415,242.046829 
	C601.265869,227.173737 614.645813,214.410141 627.341797,201.020538 
	C629.846497,198.378952 629.372864,196.458374 627.115601,194.332245 
	C623.489807,190.917053 619.838745,187.528290 616.169922,184.159348 
	C614.969666,183.057144 613.377502,182.265701 613.419434,180.074799 
	C622.039368,173.088989 633.038574,172.682053 643.182800,170.273468 
	C655.325684,167.390305 667.276367,163.829239 679.402466,160.928818 
	C685.488708,159.473068 691.599304,158.118988 698.814453,156.462860 
	C695.018372,187.305771 688.245361,216.675613 685.086853,246.196426 
	C682.116577,247.106277 681.051331,245.624100 679.887512,244.519516 
	C675.189453,240.060440 670.436096,235.652374 665.906128,231.026672 
	C663.774841,228.850281 662.351013,229.351425 660.590515,231.320999 
	C656.596802,235.789124 652.503357,240.168106 648.451904,244.584625 
	C648.339600,244.707062 648.257202,244.859238 648.136719,244.971710 
	C627.634277,264.110138 611.253784,287.124359 590.355103,306.376709 
z"/>
<path fill="#000000" opacity="1.000000" stroke="none" 
	d="
M651.170044,317.898865 
	C669.666687,352.319122 688.017029,386.399292 706.446899,420.627197 
	C703.514893,422.839081 700.766418,422.364929 698.231140,422.375580 
	C685.129150,422.430603 672.019958,422.099243 658.927673,422.445801 
	C654.133301,422.572754 651.751770,420.674347 649.677368,416.746216 
	C640.508423,399.384399 631.075745,382.162109 621.841309,364.834534 
	C613.247070,348.708221 604.834045,332.485199 596.215454,316.372009 
	C594.602844,313.357025 594.338684,310.985657 596.886353,308.315857 
	C605.497864,299.291687 613.879578,290.047821 622.515015,281.047028 
	C627.543945,275.805298 629.035034,276.147675 632.551270,282.741089 
	C638.733582,294.333740 644.868713,305.951538 651.170044,317.898865 
z"/>
<path fill="#000000" opacity="1.000000" stroke="none" 
	d="
M592.102722,207.996735 
	C593.979309,211.750092 595.537720,215.260208 597.423584,218.584534 
	C599.007507,221.376480 598.585205,223.478531 596.337097,225.668945 
	C588.725708,233.084991 582.450928,241.863617 573.442688,247.861938 
	C569.956604,250.183228 569.615967,255.266846 565.329468,257.516266 
	C561.766541,253.812286 559.915100,249.108521 557.506958,244.838989 
	C551.620911,234.403336 546.370422,223.599670 540.253845,213.306763 
	C535.890015,205.963242 537.328247,198.556183 538.465576,191.074036 
	C539.859985,181.900360 542.673279,172.853180 539.257996,163.517105 
	C538.180054,160.570572 539.274841,157.599731 540.213562,154.729706 
	C541.315552,151.360046 540.771545,148.504700 537.616699,146.439301 
	C534.466858,144.377197 532.356506,146.354523 530.136108,148.220840 
	C524.913147,152.610931 522.056396,159.696869 514.868896,160.948761 
	C514.561218,163.059723 515.351562,163.983765 516.238953,164.715454 
	C519.198669,167.155823 519.323425,169.550888 516.497131,172.216278 
	C515.681030,172.985901 514.572083,174.271118 514.726196,175.113419 
	C516.035889,182.270676 510.521240,183.204147 505.974335,185.101883 
	C504.906189,185.547684 503.857605,186.112015 502.924286,186.792267 
	C501.571045,187.778519 500.172729,188.922623 500.574890,190.854462 
	C500.958923,192.699417 502.673523,192.694885 504.130402,193.016510 
	C505.421631,193.301575 506.910309,193.411255 507.914917,194.143143 
	C511.153961,196.503036 513.399048,195.656128 514.947937,192.096985 
	C518.254639,196.495575 518.132751,213.942230 514.614075,219.280151 
	C513.088501,214.944244 510.774475,211.305695 510.768951,206.883057 
	C510.766144,204.659454 510.307556,202.611694 509.250305,200.657242 
	C506.652191,195.854462 505.197998,195.603149 501.061798,199.270126 
	C499.983398,200.226166 499.150818,201.675476 497.389160,201.347015 
	C495.485382,200.513824 496.534119,198.152542 494.798920,196.905350 
	C492.261230,197.550537 491.350830,201.350037 488.102478,201.085648 
	C487.151337,200.110504 487.933746,199.194214 488.327637,198.369019 
	C497.076508,180.039062 506.254028,161.926804 515.764771,143.978867 
	C517.633362,140.452606 519.967407,138.943924 524.016846,138.962265 
	C533.156799,139.003693 542.253967,138.357483 551.348206,140.454086 
	C555.052856,141.308197 557.273621,142.940094 558.915344,146.059433 
	C566.046753,159.608826 573.179199,173.157913 580.389465,186.665359 
	C584.151306,193.712631 588.075500,200.673233 592.102722,207.996735 
z"/>
<path fill="#000000" opacity="1.000000" stroke="none" 
	d="
M435.753998,289.767578 
	C440.498688,283.939880 445.483826,278.692108 449.381897,272.733215 
	C452.517059,267.940460 453.674194,262.010803 456.770355,257.024048 
	C464.858704,243.996735 470.138580,229.469986 478.250397,216.446732 
	C479.165955,214.976837 479.738495,213.097656 483.194214,212.428467 
	C478.415314,219.775757 487.292450,225.229355 484.077087,232.135666 
	C483.471924,233.435532 483.601959,234.919052 482.025482,235.815887 
	C476.118591,239.176117 474.991302,241.266846 476.653534,247.753281 
	C477.512970,251.107025 477.149567,253.025757 473.816498,254.425659 
	C472.209045,255.100800 470.499298,256.398926 469.667694,257.881531 
	C467.689514,261.408295 464.583801,262.735474 461.014069,263.996582 
	C453.345459,266.705688 450.775879,276.139313 455.741760,282.487396 
	C457.406067,284.614990 459.145325,283.483704 461.069000,282.671295 
	C464.777527,281.105133 465.448120,276.604767 468.728119,274.632843 
	C470.654114,276.438202 469.376251,278.008636 468.825378,279.397369 
	C465.406921,288.015320 460.589844,295.704407 453.725159,302.065796 
	C443.578217,311.468842 432.863098,320.191620 422.088837,328.849365 
	C419.094635,331.255402 417.064453,331.622833 415.709625,327.057068 
	C414.212280,322.010803 409.312592,321.394684 403.693970,320.201050 
	C415.040710,309.981995 426.400482,301.141022 435.753998,289.767578 
z"/>
<path fill="#000000" opacity="1.000000" stroke="none" 
	d="
M515.961060,274.021118 
	C520.523987,268.497711 522.180176,262.613708 521.979065,255.713867 
	C521.532715,240.406189 522.005371,225.086670 522.830688,209.787476 
	C522.973022,207.149017 522.822815,204.796906 526.567505,203.861679 
	C529.437561,203.144882 529.189148,199.841324 528.247314,197.419662 
	C525.442200,190.206619 525.590759,182.843002 526.704712,175.385574 
	C529.322388,177.340500 531.925110,183.049011 532.011475,187.763748 
	C532.072205,191.080734 531.314758,194.440323 531.604614,197.720642 
	C532.765015,210.854721 528.689026,223.669250 529.356079,236.717789 
	C529.730042,244.033691 529.838318,251.278076 529.515625,258.612549 
	C529.220581,265.318420 526.865295,270.839508 523.424072,276.237732 
	C521.205750,279.717651 519.127991,283.287231 516.449829,287.702576 
	C530.027100,285.600739 541.794617,280.491547 553.920227,276.924347 
	C555.847839,282.591675 546.458069,284.951599 551.879944,290.087036 
	C548.795776,294.502350 535.098999,300.031403 530.458435,298.908417 
	C529.172852,298.597290 528.408752,297.860870 528.039612,296.667114 
	C527.543579,295.062683 526.644531,294.001404 524.814453,294.208008 
	C522.877075,294.426788 522.554321,295.781952 522.494812,297.442413 
	C522.422974,299.444489 521.336792,301.158020 519.555237,301.747650 
	C507.982178,305.577820 495.817444,307.782562 485.179199,314.672424 
	C486.731659,308.998474 490.011810,304.408051 494.312103,301.405243 
	C504.281769,294.443665 509.882507,284.345703 515.961060,274.021118 
z"/>
<path fill="#000000" opacity="1.000000" stroke="none" 
	d="
M521.649780,306.605713 
	C538.017883,302.603149 553.806274,298.139771 569.518127,290.973480 
	C569.169189,294.507874 567.052917,295.683105 565.421204,297.047516 
	C555.424194,305.406921 543.321777,309.039886 531.029663,312.262604 
	C526.366394,313.485199 521.740356,314.866943 517.143127,316.320953 
	C502.541321,320.939240 493.339722,331.113251 488.108704,345.130096 
	C486.191986,350.266052 484.742157,355.583221 483.223114,360.859100 
	C480.734619,369.501953 476.173767,372.414520 467.262360,370.891449 
	C464.620758,370.439941 462.457397,369.094879 463.467102,366.245789 
	C467.929565,353.653931 469.641266,340.035034 478.051422,328.905701 
	C487.379883,316.561157 500.294373,310.836273 514.850037,307.808502 
	C516.965820,307.368347 519.107605,307.052826 521.649780,306.605713 
z"/>
<path fill="#000000" opacity="1.000000" stroke="none" 
	d="
M498.862671,234.164520 
	C501.795746,236.525711 502.397369,239.558350 502.377472,242.824799 
	C502.335938,249.647995 502.531036,256.482697 502.198486,263.291656 
	C501.717865,273.130737 496.612396,281.319916 491.808319,289.456757 
	C476.752747,314.956757 461.479919,340.328552 446.262482,365.732758 
	C445.305786,367.329865 444.861115,369.849396 442.078613,369.101166 
	C438.686279,368.188904 437.565155,366.555878 439.452362,362.925018 
	C445.526031,351.239441 452.982513,340.396210 459.614441,329.054962 
	C468.934509,313.116669 478.300354,297.204498 487.757599,281.347351 
	C491.472565,275.118439 492.694702,268.441223 492.674011,261.291565 
	C492.654846,254.671921 491.730347,247.922119 494.042206,241.485764 
	C495.021973,238.758026 495.592529,235.645493 498.862671,234.164520 
z"/>
<path fill="#000000" opacity="1.000000" stroke="none" 
	d="
M458.003723,305.009888 
	C469.093933,292.902985 475.190338,278.612457 479.477966,263.400146 
	C479.743988,262.456268 480.062378,261.298126 479.755676,260.459290 
	C477.861450,255.278168 481.155029,251.719711 483.332550,247.581284 
	C487.185638,248.184021 486.803650,251.129440 487.229706,253.631653 
	C489.942810,269.566467 482.746277,282.464203 474.513000,295.006561 
	C465.341919,308.977509 453.842194,321.078400 443.092072,333.778259 
	C438.038605,339.748322 432.917633,345.661194 427.830658,351.602936 
	C426.208832,353.497223 424.726135,355.595062 422.121674,356.231537 
	C420.364441,356.660980 418.315552,357.400787 417.048431,355.564667 
	C415.802826,353.759735 417.639191,352.494720 418.567902,351.248291 
	C425.737305,341.625946 433.949829,332.878906 441.749817,323.785553 
	C447.062439,317.592010 452.431763,311.447113 458.003723,305.009888 
z"/>
<path fill="#000000" opacity="1.000000" stroke="none" 
	d="
M507.506775,255.934479 
	C506.854279,248.046570 506.774994,240.557526 507.321198,233.079742 
	C507.509338,230.503967 507.596619,227.692337 511.411041,227.347473 
	C513.617249,227.147995 513.477539,224.077530 515.334351,223.163605 
	C520.898865,231.604599 516.459229,255.949600 508.229889,262.054932 
	C506.692688,260.297577 507.978271,258.204071 507.506775,255.934479 
z"/>
<path fill="#000000" opacity="1.000000" stroke="none" 
	d="
M54.826855,69.540253 
	C56.517056,72.812141 56.924099,75.576759 53.021183,77.957680 
	C51.425983,74.009872 51.464947,69.886940 48.280888,66.793625 
	C52.013378,65.641365 52.742493,68.515808 54.826855,69.540253 
z"/>
<path fill="#000000" opacity="1.000000" stroke="none" 
	d="
M72.023094,86.765656 
	C72.775223,88.206596 72.779381,89.282043 71.488823,89.944633 
	C70.441818,90.482185 69.636246,89.974350 68.957039,89.145477 
	C68.445244,88.520912 67.954231,87.856026 67.342453,87.341743 
	C66.220848,86.398857 64.573387,85.492775 66.056793,83.878609 
	C67.629341,82.167442 68.939102,83.497520 70.086433,84.787575 
	C70.625397,85.393578 71.243523,85.929176 72.023094,86.765656 
z"/>
<path fill="#000000" opacity="1.000000" stroke="none" 
	d="
M18.831131,88.707031 
	C15.916127,90.336395 14.899985,88.835960 15.806660,86.707573 
	C16.507380,85.062668 17.323141,82.942810 19.319342,82.148933 
	C20.134504,81.824753 20.943687,82.379959 21.237103,83.286400 
	C21.990358,85.613449 20.423824,87.001038 18.831131,88.707031 
z"/>
<path fill="#000000" opacity="1.000000" stroke="none" 
	d="
M39.333221,341.828186 
	C36.904778,342.093353 35.834850,344.931244 33.016457,344.248322 
	C33.114738,341.382355 34.330864,339.091003 37.013260,338.460785 
	C38.688290,338.067200 40.716015,338.995483 39.333221,341.828186 
z"/>
<path fill="#000000" opacity="1.000000" stroke="none" 
	d="
M19.296062,183.188751 
	C23.186977,187.237488 18.943689,189.184616 17.191738,192.617096 
	C15.037037,188.384277 17.707222,185.970840 19.296062,183.188751 
z"/>
<path fill="#000000" opacity="1.000000" stroke="none" 
	d="
M17.810711,174.705475 
	C17.443348,174.162643 17.240376,173.902481 17.060007,173.627502 
	C16.118805,172.192505 14.175992,171.016754 15.491880,168.928024 
	C16.117140,167.935547 17.255257,167.956757 18.019768,168.830673 
	C19.646847,170.690598 21.484625,172.677963 20.286703,175.370605 
	C19.698751,176.692184 18.667763,175.738800 17.810711,174.705475 
z"/>
<path fill="#000000" opacity="1.000000" stroke="none" 
	d="
M38.328701,68.476440 
	C36.995399,70.069466 35.799282,71.361076 34.320160,72.958290 
	C32.161236,69.499756 34.184639,67.227776 36.133682,65.808556 
	C37.628654,64.719978 38.677139,66.342880 38.328701,68.476440 
z"/>
<path fill="#000000" opacity="1.000000" stroke="none" 
	d="
M14.974062,203.210297 
	C15.591566,201.600204 16.803104,200.709793 17.669884,201.880569 
	C19.013781,203.695816 21.419392,205.455048 19.705235,208.692398 
	C17.104620,207.774185 15.622712,206.063705 14.974062,203.210297 
z"/>
<path fill="#000000" opacity="1.000000" stroke="none" 
	d="
M49.911209,87.635117 
	C50.003235,86.872330 50.038300,86.247246 50.365120,85.982964 
	C51.776691,84.841499 51.591347,81.745209 54.472843,82.461052 
	C55.603832,82.742027 56.228645,84.089005 55.549576,84.792938 
	C54.062965,86.333977 53.314217,89.564339 49.911209,87.635117 
z"/>
<path fill="#000000" opacity="1.000000" stroke="none" 
	d="
M20.381487,321.856201 
	C21.023495,325.022034 19.446238,326.403076 16.405407,327.452087 
	C16.736704,324.449188 16.600641,321.888519 20.381487,321.856201 
z"/>
<path fill="#000000" opacity="1.000000" stroke="none" 
	d="
M33.861214,87.064354 
	C32.826183,85.360657 31.955881,83.906960 34.006203,82.350731 
	C36.032307,83.720802 37.461365,85.487007 36.431049,87.916054 
	C35.912029,89.139671 34.792980,87.912140 33.861214,87.064354 
z"/>
<path fill="#000000" opacity="1.000000" stroke="none" 
	d="
M49.547935,339.601349 
	C53.113560,339.941132 53.634758,340.720856 53.354507,345.448151 
	C51.534946,343.680847 50.035580,342.143250 49.547935,339.601349 
z"/>
<path fill="#000000" opacity="1.000000" stroke="none" 
	d="
M17.005142,357.927277 
	C17.801813,356.748871 18.159977,355.366577 19.644854,355.755615 
	C20.127365,355.882050 20.765017,356.643219 20.777460,357.128265 
	C20.836838,359.442657 19.327539,360.546875 17.418587,361.212921 
	C15.813869,360.365265 16.403915,359.274353 17.005142,357.927277 
z"/>
<path fill="#000000" opacity="1.000000" stroke="none" 
	d="
M37.693146,100.757217 
	C37.589157,103.428329 36.287445,104.798042 33.424294,105.631371 
	C33.755074,102.557884 33.553345,99.899452 37.693146,100.757217 
z"/>
</svg>